<svg width="60" height="60" viewBox="0 0 60 60" fill="none" xmlns="http://www.w3.org/2000/svg">
<mask id="mask0_137_1114" style="mask-type:alpha" maskUnits="userSpaceOnUse" x="0" y="0" width="60" height="60">
<rect width="60" height="60" fill="#D9D9D9"/>
</mask>
<g mask="url(#mask0_137_1114)">
<path d="M43.125 54.375V46.875H35.625V43.125H43.125V35.625H46.875V43.125H54.375V46.875H46.875V54.375H43.125ZM13.2694 48.75C12.0065 48.75 10.9375 48.3125 10.0625 47.4375C9.1875 46.5625 8.75 45.4936 8.75 44.2307V15.7694C8.75 14.5065 9.1875 13.4375 10.0625 12.5625C10.9375 11.6875 12.0065 11.25 13.2694 11.25H16.7306V5.96191H20.5769V11.25H34.5194V5.96191H38.2694V11.25H41.7306C42.9935 11.25 44.0625 11.6875 44.9375 12.5625C45.8125 13.4375 46.25 14.5065 46.25 15.7694V30.5388C45.625 30.4617 45 30.4232 44.375 30.4232C43.75 30.4232 43.125 30.4617 42.5 30.5388V25.7694H12.5V44.2307C12.5 44.4232 12.5802 44.5994 12.7406 44.7594C12.9006 44.9198 13.0769 45 13.2694 45H30.3606C30.3606 45.625 30.3992 46.25 30.4762 46.875C30.5529 47.5 30.6938 48.125 30.8988 48.75H13.2694ZM12.5 22.0194H42.5V15.7694C42.5 15.5769 42.4198 15.4007 42.2594 15.2407C42.0994 15.0802 41.9231 15 41.7306 15H13.2694C13.0769 15 12.9006 15.0802 12.7406 15.2407C12.5802 15.4007 12.5 15.5769 12.5 15.7694V22.0194Z" fill="#1C1B1F"/>
</g>
</svg>
