<svg width="60" height="60" viewBox="0 0 60 60" fill="none" xmlns="http://www.w3.org/2000/svg">
<mask id="mask0_82_2775" style="mask-type:alpha" maskUnits="userSpaceOnUse" x="0" y="0" width="60" height="60">
<rect width="60" height="60" fill="#D9D9D9"/>
</mask>
<g mask="url(#mask0_82_2775)">
<path d="M15.625 34.375H44.375V30.625H15.625V34.375ZM15.625 26.875H44.375V23.125H15.625V26.875ZM15.625 19.375H44.375V15.625H15.625V19.375ZM53.75 52.5962L44.9038 43.75H10.7694C9.50646 43.75 8.4375 43.3125 7.5625 42.4375C6.6875 41.5625 6.25 40.4935 6.25 39.2306V10.7694C6.25 9.50646 6.6875 8.4375 7.5625 7.5625C8.4375 6.6875 9.50646 6.25 10.7694 6.25H49.2306C50.4935 6.25 51.5625 6.6875 52.4375 7.5625C53.3125 8.4375 53.75 9.50646 53.75 10.7694V52.5962ZM10.7694 40H46.5L50 43.4619V10.7694C50 10.5769 49.9198 10.4006 49.7594 10.2406C49.5994 10.0802 49.4231 10 49.2306 10H10.7694C10.5769 10 10.4006 10.0802 10.2406 10.2406C10.0802 10.4006 10 10.5769 10 10.7694V39.2306C10 39.4231 10.0802 39.5994 10.2406 39.7594C10.4006 39.9198 10.5769 40 10.7694 40Z" fill="#222222"/>
</g>
</svg>
