<svg width="60" height="60" viewBox="0 0 60 60" fill="none" xmlns="http://www.w3.org/2000/svg">
<mask id="mask0_137_1108" style="mask-type:alpha" maskUnits="userSpaceOnUse" x="0" y="0" width="60" height="60">
<rect width="60" height="60" fill="#D9D9D9"/>
</mask>
<g mask="url(#mask0_137_1108)">
<path d="M18.2694 51.2503C17.0227 51.2503 15.9577 50.8089 15.0744 49.9259C14.1915 49.0426 13.75 47.9776 13.75 46.7309V15.0003H11.25V11.2503H22.5V9.03906H37.5V11.2503H48.75V15.0003H46.25V46.7309C46.25 47.9939 45.8125 49.0628 44.9375 49.9378C44.0625 50.8128 42.9935 51.2503 41.7306 51.2503H18.2694ZM42.5 15.0003H17.5V46.7309C17.5 46.9555 17.5721 47.1399 17.7162 47.2841C17.8604 47.4282 18.0448 47.5003 18.2694 47.5003H41.7306C41.9231 47.5003 42.0994 47.4201 42.2594 47.2597C42.4198 47.0997 42.5 46.9234 42.5 46.7309V15.0003ZM23.51 42.5003H27.2594V20.0003H23.51V42.5003ZM32.7406 42.5003H36.49V20.0003H32.7406V42.5003Z" fill="#1C1B1F"/>
</g>
</svg>
