<svg width="60" height="60" viewBox="0 0 60 60" fill="none" xmlns="http://www.w3.org/2000/svg">
<mask id="mask0_137_1105" style="mask-type:alpha" maskUnits="userSpaceOnUse" x="0" y="0" width="60" height="60">
<rect width="60" height="60" fill="#D9D9D9"/>
</mask>
<g mask="url(#mask0_137_1105)">
<path d="M13.2694 51.2495C12.0065 51.2495 10.9375 50.812 10.0625 49.937C9.1875 49.062 8.75 47.9931 8.75 46.7301V37.8364H12.5V46.7301C12.5 46.9226 12.5802 47.0989 12.7406 47.2589C12.9006 47.4193 13.0769 47.4995 13.2694 47.4995H46.7306C46.9231 47.4995 47.0994 47.4193 47.2594 47.2589C47.4198 47.0989 47.5 46.9226 47.5 46.7301V13.2689C47.5 13.0764 47.4198 12.9001 47.2594 12.7401C47.0994 12.5797 46.9231 12.4995 46.7306 12.4995H13.2694C13.0769 12.4995 12.9006 12.5797 12.7406 12.7401C12.5802 12.9001 12.5 13.0764 12.5 13.2689V22.1626H8.75V13.2689C8.75 12.006 9.1875 10.937 10.0625 10.062C10.9375 9.18701 12.0065 8.74951 13.2694 8.74951H46.7306C47.9935 8.74951 49.0625 9.18701 49.9375 10.062C50.8125 10.937 51.25 12.006 51.25 13.2689V46.7301C51.25 47.9931 50.8125 49.062 49.9375 49.937C49.0625 50.812 47.9935 51.2495 46.7306 51.2495H13.2694ZM26.6825 41.1533L24.0481 38.442L30.6156 31.8745H8.75V28.1245H30.6156L24.0481 21.557L26.6825 18.8458L37.8363 29.9995L26.6825 41.1533Z" fill="#222222"/>
</g>
</svg>
