<svg width="60" height="60" viewBox="0 0 60 60" fill="none" xmlns="http://www.w3.org/2000/svg">
<mask id="mask0_137_1099" style="mask-type:alpha" maskUnits="userSpaceOnUse" x="0" y="0" width="60" height="60">
<rect width="60" height="60" fill="#D9D9D9"/>
</mask>
<g mask="url(#mask0_137_1099)">
<path d="M30 55.4811V51.7311H46.7306C46.9552 51.7311 47.1396 51.659 47.2837 51.5149C47.4279 51.3707 47.5 51.1863 47.5 50.9617V48.7505H38.6538V31.058H47.5V27.5005C47.5 22.6672 45.7917 18.5422 42.375 15.1255C38.9583 11.7088 34.8333 10.0005 30 10.0005C25.1667 10.0005 21.0417 11.7088 17.625 15.1255C14.2083 18.5422 12.5 22.6672 12.5 27.5005V31.058H21.3463V48.7505H13.2694C12.0065 48.7505 10.9375 48.313 10.0625 47.438C9.1875 46.563 8.75 45.494 8.75 44.2311V27.5005C8.75 24.5776 9.30771 21.8276 10.4231 19.2505C11.5385 16.6734 13.061 14.4203 14.9906 12.4911C16.9198 10.5615 19.1729 9.03903 21.75 7.92361C24.3271 6.8082 27.0771 6.25049 30 6.25049C32.9229 6.25049 35.6729 6.8082 38.25 7.92361C40.8271 9.03903 43.0802 10.5615 45.0094 12.4911C46.939 14.4203 48.4615 16.6734 49.5769 19.2505C50.6923 21.8276 51.25 24.5776 51.25 27.5005V50.9617C51.25 52.2247 50.8125 53.2936 49.9375 54.1686C49.0625 55.0436 47.9935 55.4811 46.7306 55.4811H30ZM13.2694 45.0005H17.5963V34.808H12.5V44.2311C12.5 44.4557 12.5721 44.6401 12.7163 44.7842C12.8604 44.9284 13.0448 45.0005 13.2694 45.0005ZM42.4038 45.0005H47.5V34.808H42.4038V45.0005Z" fill="#222222"/>
</g>
</svg>
