<svg width="60" height="60" viewBox="0 0 60 60" fill="none" xmlns="http://www.w3.org/2000/svg">
<mask id="mask0_137_1102" style="mask-type:alpha" maskUnits="userSpaceOnUse" x="0" y="0" width="60" height="60">
<rect width="60" height="60" fill="#D9D9D9"/>
</mask>
<g mask="url(#mask0_137_1102)">
<path d="M51.2498 44.3179L47.4998 40.5679V34.8079H41.7161L37.9661 31.0579H47.4998V27.5004C47.4998 22.6159 45.7915 18.4779 42.3748 15.0867C38.9582 11.6958 34.8332 10.0004 29.9998 10.0004C28.1665 10.0004 26.403 10.2729 24.7092 10.8179C23.0151 11.3625 21.4805 12.1221 20.1055 13.0967L17.3942 10.4623C19.0288 9.18022 20.9294 8.15772 23.0961 7.39481C25.2628 6.63189 27.564 6.25043 29.9998 6.25043C32.9228 6.25043 35.6728 6.80168 38.2498 7.90418C40.8269 9.00668 43.0801 10.5227 45.0092 12.4523C46.9388 14.3819 48.4613 16.6352 49.5767 19.2123C50.6921 21.789 51.2498 24.5517 51.2498 27.5004V44.3179ZM29.9998 55.4811V51.7311H46.2305L43.2498 48.7504H38.173V43.6736L14.3173 19.8179C13.7982 20.9138 13.3655 22.1388 13.0192 23.4929C12.673 24.8471 12.4998 26.1829 12.4998 27.5004V31.0579H21.7305V48.7504H13.2692C12.0063 48.7504 10.9373 48.3129 10.0623 47.4379C9.18734 46.5629 8.74984 45.494 8.74984 44.2311V27.5004C8.74984 25.5775 8.99276 23.7329 9.47859 21.9667C9.96401 20.2009 10.6473 18.5423 11.5286 16.9911L2.48047 7.98106L5.15359 5.34668L52.8842 53.1154V55.4811H29.9998ZM13.2692 45.0004H17.9805V34.8079H12.4998V44.2311C12.4998 44.4556 12.5719 44.64 12.7161 44.7842C12.8603 44.9284 13.0446 45.0004 13.2692 45.0004Z" fill="#1C1B1F"/>
</g>
</svg>
