<svg width="60" height="60" viewBox="0 0 60 60" fill="none" xmlns="http://www.w3.org/2000/svg">
<mask id="mask0_82_2756" style="mask-type:alpha" maskUnits="userSpaceOnUse" x="0" y="0" width="60" height="60">
<rect width="60" height="60" fill="#D9D9D9"/>
</mask>
<g mask="url(#mask0_82_2756)">
<path d="M20.3125 17.7306L26.8319 9.05312C27.2294 8.51854 27.7013 8.12604 28.2475 7.87563C28.7942 7.62521 29.3783 7.5 30 7.5C30.6217 7.5 31.2058 7.62521 31.7525 7.87563C32.2988 8.12604 32.7706 8.51854 33.1681 9.05312L39.6875 17.7306L49.7356 21.1488C50.6265 21.4504 51.3123 21.9554 51.7931 22.6637C52.274 23.3725 52.5144 24.1554 52.5144 25.0125C52.5144 25.4079 52.4565 25.8006 52.3406 26.1906C52.2248 26.581 52.0344 26.955 51.7694 27.3125L45.1825 36.245L45.4325 45.8219C45.4742 46.9965 45.0856 47.9865 44.2669 48.7919C43.4481 49.5973 42.4954 50 41.4088 50C41.4217 50 41.0433 49.9535 40.2738 49.8606L30 46.8319L19.7263 49.8606C19.5179 49.944 19.3169 49.9879 19.1231 49.9925C18.9298 49.9975 18.7525 50 18.5913 50C17.4825 50 16.5242 49.5973 15.7163 48.7919C14.9088 47.9865 14.5258 46.9965 14.5675 45.8219L14.8175 36.1825L8.245 27.3125C7.98 26.9517 7.78958 26.5744 7.67375 26.1806C7.55792 25.7873 7.5 25.3937 7.5 25C7.5 24.1562 7.74708 23.3715 8.24125 22.6456C8.73583 21.9198 9.42625 21.405 10.3125 21.1012L20.3125 17.7306ZM21.8844 19.88L11.1538 23.495C10.6729 23.6554 10.3444 23.984 10.1681 24.4806C9.99188 24.9777 10.064 25.4346 10.3844 25.8512L17.3656 35.4519L17.0675 45.8512C17.0354 46.3958 17.2277 46.8283 17.6444 47.1488C18.061 47.4696 18.5258 47.5498 19.0388 47.3894L30 44.2406L40.9613 47.4519C41.4742 47.6123 41.939 47.5321 42.3556 47.2113C42.7723 46.8908 42.9646 46.4583 42.9325 45.9137L42.6344 35.4519L49.6156 25.9762C49.936 25.5596 50.0081 25.1027 49.8319 24.6056C49.6556 24.109 49.3271 23.7804 48.8463 23.62L38.1156 19.88L31.2019 10.6731C30.9135 10.2565 30.5129 10.0481 30 10.0481C29.4871 10.0481 29.0865 10.2565 28.7981 10.6731L21.8844 19.88Z" fill="#222222"/>
</g>
</svg>
