<svg width="60" height="60" viewBox="0 0 60 60" fill="none" xmlns="http://www.w3.org/2000/svg">
<mask id="mask0_82_2760" style="mask-type:alpha" maskUnits="userSpaceOnUse" x="0" y="0" width="60" height="60">
<rect width="60" height="60" fill="#D9D9D9"/>
</mask>
<g mask="url(#mask0_82_2760)">
<path d="M15.5771 33.75C14.5459 33.75 13.6632 33.3827 12.929 32.6481C12.1944 31.914 11.8271 31.0312 11.8271 30C11.8271 28.9687 12.1944 28.086 12.929 27.3519C13.6632 26.6173 14.5459 26.25 15.5771 26.25C16.6084 26.25 17.4913 26.6173 18.2259 27.3519C18.9601 28.086 19.3271 28.9687 19.3271 30C19.3271 31.0312 18.9601 31.914 18.2259 32.6481C17.4913 33.3827 16.6084 33.75 15.5771 33.75ZM30.0003 33.75C28.969 33.75 28.0863 33.3827 27.3521 32.6481C26.6176 31.914 26.2503 31.0312 26.2503 30C26.2503 28.9687 26.6176 28.086 27.3521 27.3519C28.0863 26.6173 28.969 26.25 30.0003 26.25C31.0315 26.25 31.9142 26.6173 32.6484 27.3519C33.383 28.086 33.7503 28.9687 33.7503 30C33.7503 31.0312 33.383 31.914 32.6484 32.6481C31.9142 33.3827 31.0315 33.75 30.0003 33.75ZM44.4234 33.75C43.3922 33.75 42.5092 33.3827 41.7747 32.6481C41.0405 31.914 40.6734 31.0312 40.6734 30C40.6734 28.9687 41.0405 28.086 41.7747 27.3519C42.5092 26.6173 43.3922 26.25 44.4234 26.25C45.4547 26.25 46.3374 26.6173 47.0715 27.3519C47.8061 28.086 48.1734 28.9687 48.1734 30C48.1734 31.0312 47.8061 31.914 47.0715 32.6481C46.3374 33.3827 45.4547 33.75 44.4234 33.75Z" fill="#222222"/>
</g>
</svg>
